<?xml version="1.0" encoding="UTF-8" standalone="no"?>
<!-- Created with Inkscape (http://www.inkscape.org/) -->

<svg
   xmlns:dc="http://purl.org/dc/elements/1.1/"
   xmlns:cc="http://creativecommons.org/ns#"
   xmlns:rdf="http://www.w3.org/1999/02/22-rdf-syntax-ns#"
   xmlns:svg="http://www.w3.org/2000/svg"
   xmlns="http://www.w3.org/2000/svg"
   xmlns:sodipodi="http://sodipodi.sourceforge.net/DTD/sodipodi-0.dtd"
   xmlns:inkscape="http://www.inkscape.org/namespaces/inkscape"
   width="64px"
   height="64px"
   id="svg3195"
   version="1.1"
   inkscape:version="0.48.3.1 r9886"
   sodipodi:docname="vmx-favicon.svg">
  <defs
     id="defs3197" />
  <sodipodi:namedview
     id="base"
     pagecolor="#ffffff"
     bordercolor="#666666"
     borderopacity="1.0"
     inkscape:pageopacity="0.0"
     inkscape:pageshadow="2"
     inkscape:zoom="5.5"
     inkscape:cx="32"
     inkscape:cy="32"
     inkscape:current-layer="layer1"
     showgrid="true"
     inkscape:document-units="px"
     inkscape:grid-bbox="true"
     inkscape:window-width="762"
     inkscape:window-height="749"
     inkscape:window-x="0"
     inkscape:window-y="17"
     inkscape:window-maximized="0" />
  <metadata
     id="metadata3200">
    <rdf:RDF>
      <cc:Work
         rdf:about="">
        <dc:format>image/svg+xml</dc:format>
        <dc:type
           rdf:resource="http://purl.org/dc/dcmitype/StillImage" />
        <dc:title></dc:title>
      </cc:Work>
    </rdf:RDF>
  </metadata>
  <g
     id="layer1"
     inkscape:label="Layer 1"
     inkscape:groupmode="layer">
    <path
       d="M 62.057199,12.822133 C 61.253198,11.570139 50.482198,8.0292661 30.513199,9.0008909 10.541199,9.973725 3.4451986,12.881349 2.4791986,13.466257 c -0.966,0.583701 -1.93699996,1.16015 -1.453,3.107025 0.482,1.945668 1.39,5.369319 1.872,6.730078 0.482,1.363175 1.628,3.041766 3.657,2.590999 3.6360004,-0.806062 11.3780004,-3.108233 13.6560004,-3.666555 3.686,-0.905158 13.162,-1.979506 17.382,-1.604875 8.154999,0.726304 13.275999,4.582592 13.275999,4.582592 0,0 -6.67,-2.595835 -12.073999,-2.520908 -0.941,0.0145 -15.234,-0.534153 -22.883,4.507663 -2.828,1.86349 -6.5560004,5.253302 -6.4420004,8.098083 0.087,2.157153 1.8260004,7.104706 3.7540004,9.632865 1.324,1.739016 4.223,5.508293 5.834,6.87147 1.61,1.361967 4.435,4.165661 8.341,5.590469 4.403,1.610917 8.086,1.806693 10.984,-1.308793 1.337,-1.435685 6.290999,-7.644902 4.298999,-7.913186 -1.668999,-0.273119 -2.258999,0.05921 -6.003999,0.07613 -7.736,0.03626 -12.192,-4.813412 -12.192,-4.813412 9.008,4.611594 20.220999,3.47199 23.695999,-1.527529 1.498,-2.154737 8.764,-13.788858 9.689,-15.21125 1.771,-2.725141 3.188,-6.099244 4.065001,-8.17422 1.732,-4.085901 0.121,-5.690774 0.121,-5.690774 z m -29.077,29.344528 c -3.562,0 -6.448,-3.488907 -6.448,-7.792337 0,-4.303427 2.887,-7.792335 6.448,-7.792335 3.561,0 6.447,3.488908 6.447,7.792335 0,4.30343 -2.886,7.792337 -6.447,7.792337 z"
       id="path3105"
       inkscape:connector-curvature="0"
       style="fill:#183a49" />
  </g>
</svg>
