<?xml version="1.0" encoding="UTF-8" standalone="no"?>
<!-- Created with Inkscape (http://www.inkscape.org/) -->

<svg
   xmlns:dc="http://purl.org/dc/elements/1.1/"
   xmlns:cc="http://creativecommons.org/ns#"
   xmlns:rdf="http://www.w3.org/1999/02/22-rdf-syntax-ns#"
   xmlns:svg="http://www.w3.org/2000/svg"
   xmlns="http://www.w3.org/2000/svg"
   version="1.1"
   width="64"
   height="64"
   id="svg3195">
  <defs
     id="defs3197" />
  <metadata
     id="metadata3200">
    <rdf:RDF>
      <cc:Work
         rdf:about="">
        <dc:format>image/svg+xml</dc:format>
        <dc:type
           rdf:resource="http://purl.org/dc/dcmitype/StillImage" />
        <dc:title></dc:title>
      </cc:Work>
    </rdf:RDF>
  </metadata>
  <g
     id="layer1">
    <path
       d="M 62.057199,5.8073196 C 61.253198,4.2427607 50.482198,-0.18210167 30.513199,1.0320926 10.541199,2.2477971 3.4451986,5.881319 2.4791986,6.6122519 c -0.966,0.7294227 -1.93699996,1.4497843 -1.453,3.8827031 0.482,2.431409 1.39,6.709785 1.872,8.410262 0.482,1.703496 1.628,3.801153 3.657,3.237851 3.6360004,-1.007298 11.3780004,-3.884214 13.6560004,-4.581922 3.686,-1.131134 13.162,-2.473696 17.382,-2.005537 8.154999,0.907627 13.275999,5.72665 13.275999,5.72665 0,0 -6.67,-3.243893 -12.073999,-3.150261 -0.941,0.01812 -15.234,-0.667505 -22.883,5.633016 -2.828,2.328716 -6.5560004,6.564805 -6.4420004,10.119795 0.087,2.695693 1.8260004,8.878418 3.7540004,12.03774 1.324,2.173166 4.223,6.883455 5.834,8.586953 1.61,1.701986 4.435,5.205632 8.341,6.986148 4.403,2.013087 8.086,2.257739 10.984,-1.635538 1.337,-1.794108 6.290999,-9.553476 4.298999,-9.888738 -1.668999,-0.341304 -2.258999,0.074 -6.003999,0.09514 -7.736,0.04531 -12.192,-6.015095 -12.192,-6.015095 9.008,5.762893 20.220999,4.338782 23.695999,-1.908882 1.498,-2.692673 8.764,-17.231289 9.689,-19.008785 1.771,-3.405483 3.188,-7.62194 4.065001,-10.214941 1.732,-5.1059585 0.121,-7.1114934 0.121,-7.1114934 z m -29.077,36.6704814 c -3.562,0 -6.448,-4.359924 -6.448,-9.737718 0,-5.377792 2.887,-9.737716 6.448,-9.737716 3.561,0 6.447,4.359924 6.447,9.737716 0,5.377794 -2.886,9.737718 -6.447,9.737718 z"
       id="path3105"
       style="fill:#183a49" />
  </g>
</svg>
